<?xml version="1.0" encoding="UTF-8"?>
<svg xmlns="http://www.w3.org/2000/svg" viewBox="0 0 640 400" role="img" aria-label="Vulnerability Assessment">
  <defs>
    <linearGradient id="placeholders-cyber-vapt-scan-svg-bg" x1="0" y1="0" x2="1" y2="1">
      <stop offset="0%" stop-color="#0B1016"/>
      <stop offset="55%" stop-color="#121A24"/>
      <stop offset="100%" stop-color="#0E1620"/>
    </linearGradient>
    <radialGradient id="placeholders-cyber-vapt-scan-svg-glow" cx="78%" cy="18%" r="45%">
      <stop offset="0%" stop-color="#DC2626" stop-opacity="0.34"/>
      <stop offset="100%" stop-color="#DC2626" stop-opacity="0"/>
    </radialGradient>
    <radialGradient id="placeholders-cyber-vapt-scan-svg-glow2" cx="12%" cy="88%" r="40%">
      <stop offset="0%" stop-color="#DC2626" stop-opacity="0.16"/>
      <stop offset="100%" stop-color="#DC2626" stop-opacity="0"/>
    </radialGradient>
    <pattern id="placeholders-cyber-vapt-scan-svg-grid" width="32" height="32" patternUnits="userSpaceOnUse">
      <path d="M32 0H0V32" fill="none" stroke="#DC2626" stroke-opacity="0.06" stroke-width="1"/>
    </pattern>
    <filter id="placeholders-cyber-vapt-scan-svg-soft" x="-20%" y="-20%" width="140%" height="140%">
      <feDropShadow dx="0" dy="10" stdDeviation="14" flood-color="#000" flood-opacity="0.35"/>
    </filter>
  </defs>
  <rect width="640" height="400" rx="28" fill="url(#placeholders-cyber-vapt-scan-svg-bg)"/>
  <rect width="640" height="400" rx="28" fill="url(#placeholders-cyber-vapt-scan-svg-glow)"/>
  <rect width="640" height="400" rx="28" fill="url(#placeholders-cyber-vapt-scan-svg-glow2)"/>
  <rect width="640" height="400" rx="28" fill="url(#placeholders-cyber-vapt-scan-svg-grid)"/>
  <g filter="url(#placeholders-cyber-vapt-scan-svg-soft)">
      <g transform="translate(80,56)">
        <path d="M240 18l110 42v78c0 68-46 118-110 142C176 256 130 206 130 138V60L240 18z" fill="rgba(220,38,38,0.12)" stroke="#DC2626" stroke-width="3"/>
        <rect x="204" y="110" width="72" height="58" rx="12" fill="#121820" stroke="#DC2626" stroke-width="2.5"/>
        <path d="M222 110v-14a18 18 0 0 1 36 0v14" fill="none" stroke="#DC2626" stroke-width="3" stroke-linecap="round"/>
        <circle cx="240" cy="138" r="7" fill="#DC2626"/>
        <g transform="translate(0,210)">
          
          <g transform="translate(0,0)">
            <rect width="104" height="54" rx="12" fill="#121820" stroke="#DC2626" stroke-opacity="0.3"/>
            <rect x="14" y="16" width="50" height="8" rx="4" fill="rgba(220,38,38,0.55)"/>
            <rect x="14" y="32" width="72" height="7" rx="3.5" fill="#2A3440"/>
          </g>
          <g transform="translate(120,0)">
            <rect width="104" height="54" rx="12" fill="#121820" stroke="#DC2626" stroke-opacity="0.3"/>
            <rect x="14" y="16" width="50" height="8" rx="4" fill="rgba(220,38,38,0.55)"/>
            <rect x="14" y="32" width="72" height="7" rx="3.5" fill="#2A3440"/>
          </g>
          <g transform="translate(240,0)">
            <rect width="104" height="54" rx="12" fill="#121820" stroke="#DC2626" stroke-opacity="0.3"/>
            <rect x="14" y="16" width="50" height="8" rx="4" fill="rgba(220,38,38,0.55)"/>
            <rect x="14" y="32" width="72" height="7" rx="3.5" fill="#2A3440"/>
          </g>
          <g transform="translate(360,0)">
            <rect width="104" height="54" rx="12" fill="#121820" stroke="#DC2626" stroke-opacity="0.3"/>
            <rect x="14" y="16" width="50" height="8" rx="4" fill="rgba(220,38,38,0.55)"/>
            <rect x="14" y="32" width="72" height="7" rx="3.5" fill="#2A3440"/>
          </g>
        </g>
      </g></g>
  <g>
    <rect x="28" y="344" width="248.79999999999998" height="32" rx="16" fill="rgba(220,38,38,0.16)" stroke="#DC2626" stroke-opacity="0.45"/>
    <text x="44" y="365" fill="#DC2626" font-family="Space Grotesk, Inter, Arial, sans-serif" font-size="14" font-weight="700">Vulnerability Assessment</text>
  </g>
</svg>
